<?xml version="1.0" encoding="UTF-8"?>
<svg xmlns="http://www.w3.org/2000/svg" xmlns:xlink="http://www.w3.org/1999/xlink"
     width="1000" height="2150.0" viewBox="-500.0 -1075.0 1000 2150.0">
<defs>
</defs>
<path d="M0,0 L-74.4898754958521,278.0 L-278.0,278.0 L-278.0,74.4898754958521 Z" fill="rgb(20, 20, 20)" stroke="rgb(0, 0, 0)" stroke-width="6" transform="translate(0,-556) rotate(0)" />
<path d="M-74.4898754958521,278.0 L-85.66335682022991,319.7 L-319.7,319.7 L-278.0,278.0 Z" fill="rgb(255, 0, 0)" stroke="rgb(0, 0, 0)" stroke-width="6" transform="translate(0,-556) rotate(0)" />
<path d="M-278.0,278.0 L-319.7,319.7 L-319.7,85.66335682022991 L-278.0,74.4898754958521 Z" fill="rgb(0, 73, 255)" stroke="rgb(0, 0, 0)" stroke-width="6" transform="translate(0,-556) rotate(0)" />
<path d="M0,0 L-74.4898754958521,278.0 L-203.51012450414788,203.5101245041479 Z" fill="rgb(20, 20, 20)" stroke="rgb(0, 0, 0)" stroke-width="6" transform="translate(0,-556) rotate(60)" />
<path d="M-74.4898754958521,278.0 L-85.66335682022991,319.7 L-234.03664317977004,234.03664317977007 L-203.51012450414788,203.5101245041479 Z" fill="rgb(0, 73, 255)" stroke="rgb(0, 0, 0)" stroke-width="6" transform="translate(0,-556) rotate(60)" />
<path d="M0,0 L-74.4898754958521,278.0 L-278.0,278.0 L-278.0,74.4898754958521 Z" fill="rgb(20, 20, 20)" stroke="rgb(0, 0, 0)" stroke-width="6" transform="translate(0,-556) rotate(90)" />
<path d="M-74.4898754958521,278.0 L-85.66335682022991,319.7 L-319.7,319.7 L-278.0,278.0 Z" fill="rgb(0, 73, 255)" stroke="rgb(0, 0, 0)" stroke-width="6" transform="translate(0,-556) rotate(90)" />
<path d="M-278.0,278.0 L-319.7,319.7 L-319.7,85.66335682022991 L-278.0,74.4898754958521 Z" fill="rgb(255, 165, 0)" stroke="rgb(0, 0, 0)" stroke-width="6" transform="translate(0,-556) rotate(90)" />
<path d="M0,0 L-74.4898754958521,278.0 L-203.51012450414788,203.5101245041479 Z" fill="rgb(20, 20, 20)" stroke="rgb(0, 0, 0)" stroke-width="6" transform="translate(0,-556) rotate(150)" />
<path d="M-74.4898754958521,278.0 L-85.66335682022991,319.7 L-234.03664317977004,234.03664317977007 L-203.51012450414788,203.5101245041479 Z" fill="rgb(255, 165, 0)" stroke="rgb(0, 0, 0)" stroke-width="6" transform="translate(0,-556) rotate(150)" />
<path d="M0,0 L-74.4898754958521,278.0 L-278.0,278.0 L-278.0,74.4898754958521 Z" fill="rgb(20, 20, 20)" stroke="rgb(0, 0, 0)" stroke-width="6" transform="translate(0,-556) rotate(180)" />
<path d="M-74.4898754958521,278.0 L-85.66335682022991,319.7 L-319.7,319.7 L-278.0,278.0 Z" fill="rgb(255, 165, 0)" stroke="rgb(0, 0, 0)" stroke-width="6" transform="translate(0,-556) rotate(180)" />
<path d="M-278.0,278.0 L-319.7,319.7 L-319.7,85.66335682022991 L-278.0,74.4898754958521 Z" fill="rgb(0, 255, 0)" stroke="rgb(0, 0, 0)" stroke-width="6" transform="translate(0,-556) rotate(180)" />
<path d="M0,0 L-74.4898754958521,278.0 L-203.51012450414788,203.5101245041479 Z" fill="rgb(20, 20, 20)" stroke="rgb(0, 0, 0)" stroke-width="6" transform="translate(0,-556) rotate(240)" />
<path d="M-74.4898754958521,278.0 L-85.66335682022991,319.7 L-234.03664317977004,234.03664317977007 L-203.51012450414788,203.5101245041479 Z" fill="rgb(0, 255, 0)" stroke="rgb(0, 0, 0)" stroke-width="6" transform="translate(0,-556) rotate(240)" />
<path d="M0,0 L-74.4898754958521,278.0 L-278.0,278.0 L-278.0,74.4898754958521 Z" fill="rgb(20, 20, 20)" stroke="rgb(0, 0, 0)" stroke-width="6" transform="translate(0,-556) rotate(270)" />
<path d="M-74.4898754958521,278.0 L-85.66335682022991,319.7 L-319.7,319.7 L-278.0,278.0 Z" fill="rgb(0, 255, 0)" stroke="rgb(0, 0, 0)" stroke-width="6" transform="translate(0,-556) rotate(270)" />
<path d="M-278.0,278.0 L-319.7,319.7 L-319.7,85.66335682022991 L-278.0,74.4898754958521 Z" fill="rgb(255, 0, 0)" stroke="rgb(0, 0, 0)" stroke-width="6" transform="translate(0,-556) rotate(270)" />
<path d="M0,0 L-74.4898754958521,278.0 L-203.51012450414788,203.5101245041479 Z" fill="rgb(20, 20, 20)" stroke="rgb(0, 0, 0)" stroke-width="6" transform="translate(0,-556) rotate(330)" />
<path d="M-74.4898754958521,278.0 L-85.66335682022991,319.7 L-234.03664317977004,234.03664317977007 L-203.51012450414788,203.5101245041479 Z" fill="rgb(255, 0, 0)" stroke="rgb(0, 0, 0)" stroke-width="6" transform="translate(0,-556) rotate(330)" />
<rect x="-278.0" y="-74.4898754958521" width="203.51012450414788" height="148.9797509917042" fill="rgb(255, 0, 0)" stroke="rgb(0, 0, 0)" stroke-width="6" />
<rect x="-74.4898754958521" y="-74.4898754958521" width="352.48987549585206" height="148.9797509917042" fill="rgb(255, 0, 0)" stroke="rgb(0, 0, 0)" stroke-width="6" />
<path d="M0,0 L-74.4898754958521,278.0 L-203.51012450414788,203.5101245041479 Z" fill="rgb(255, 255, 255)" stroke="rgb(0, 0, 0)" stroke-width="6" transform="translate(0,556) rotate(150)" />
<path d="M-74.4898754958521,278.0 L-85.66335682022991,319.7 L-234.03664317977004,234.03664317977007 L-203.51012450414788,203.5101245041479 Z" fill="rgb(255, 0, 0)" stroke="rgb(0, 0, 0)" stroke-width="6" transform="translate(0,556) rotate(150)" />
<path d="M0,0 L-74.4898754958521,278.0 L-278.0,278.0 L-278.0,74.4898754958521 Z" fill="rgb(255, 255, 255)" stroke="rgb(0, 0, 0)" stroke-width="6" transform="translate(0,556) rotate(180)" />
<path d="M-74.4898754958521,278.0 L-85.66335682022991,319.7 L-319.7,319.7 L-278.0,278.0 Z" fill="rgb(255, 0, 0)" stroke="rgb(0, 0, 0)" stroke-width="6" transform="translate(0,556) rotate(180)" />
<path d="M-278.0,278.0 L-319.7,319.7 L-319.7,85.66335682022991 L-278.0,74.4898754958521 Z" fill="rgb(0, 255, 0)" stroke="rgb(0, 0, 0)" stroke-width="6" transform="translate(0,556) rotate(180)" />
<path d="M0,0 L-74.4898754958521,278.0 L-203.51012450414788,203.5101245041479 Z" fill="rgb(255, 255, 255)" stroke="rgb(0, 0, 0)" stroke-width="6" transform="translate(0,556) rotate(240)" />
<path d="M-74.4898754958521,278.0 L-85.66335682022991,319.7 L-234.03664317977004,234.03664317977007 L-203.51012450414788,203.5101245041479 Z" fill="rgb(0, 255, 0)" stroke="rgb(0, 0, 0)" stroke-width="6" transform="translate(0,556) rotate(240)" />
<path d="M0,0 L-74.4898754958521,278.0 L-278.0,278.0 L-278.0,74.4898754958521 Z" fill="rgb(255, 255, 255)" stroke="rgb(0, 0, 0)" stroke-width="6" transform="translate(0,556) rotate(270)" />
<path d="M-74.4898754958521,278.0 L-85.66335682022991,319.7 L-319.7,319.7 L-278.0,278.0 Z" fill="rgb(0, 255, 0)" stroke="rgb(0, 0, 0)" stroke-width="6" transform="translate(0,556) rotate(270)" />
<path d="M-278.0,278.0 L-319.7,319.7 L-319.7,85.66335682022991 L-278.0,74.4898754958521 Z" fill="rgb(255, 165, 0)" stroke="rgb(0, 0, 0)" stroke-width="6" transform="translate(0,556) rotate(270)" />
<path d="M0,0 L-74.4898754958521,278.0 L-203.51012450414788,203.5101245041479 Z" fill="rgb(255, 255, 255)" stroke="rgb(0, 0, 0)" stroke-width="6" transform="translate(0,556) rotate(330)" />
<path d="M-74.4898754958521,278.0 L-85.66335682022991,319.7 L-234.03664317977004,234.03664317977007 L-203.51012450414788,203.5101245041479 Z" fill="rgb(255, 165, 0)" stroke="rgb(0, 0, 0)" stroke-width="6" transform="translate(0,556) rotate(330)" />
<path d="M0,0 L-74.4898754958521,278.0 L-278.0,278.0 L-278.0,74.4898754958521 Z" fill="rgb(255, 255, 255)" stroke="rgb(0, 0, 0)" stroke-width="6" transform="translate(0,556) rotate(360)" />
<path d="M-74.4898754958521,278.0 L-85.66335682022991,319.7 L-319.7,319.7 L-278.0,278.0 Z" fill="rgb(255, 165, 0)" stroke="rgb(0, 0, 0)" stroke-width="6" transform="translate(0,556) rotate(360)" />
<path d="M-278.0,278.0 L-319.7,319.7 L-319.7,85.66335682022991 L-278.0,74.4898754958521 Z" fill="rgb(0, 73, 255)" stroke="rgb(0, 0, 0)" stroke-width="6" transform="translate(0,556) rotate(360)" />
<path d="M0,0 L-74.4898754958521,278.0 L-203.51012450414788,203.5101245041479 Z" fill="rgb(255, 255, 255)" stroke="rgb(0, 0, 0)" stroke-width="6" transform="translate(0,556) rotate(420)" />
<path d="M-74.4898754958521,278.0 L-85.66335682022991,319.7 L-234.03664317977004,234.03664317977007 L-203.51012450414788,203.5101245041479 Z" fill="rgb(0, 73, 255)" stroke="rgb(0, 0, 0)" stroke-width="6" transform="translate(0,556) rotate(420)" />
<path d="M0,0 L-74.4898754958521,278.0 L-278.0,278.0 L-278.0,74.4898754958521 Z" fill="rgb(255, 255, 255)" stroke="rgb(0, 0, 0)" stroke-width="6" transform="translate(0,556) rotate(450)" />
<path d="M-74.4898754958521,278.0 L-85.66335682022991,319.7 L-319.7,319.7 L-278.0,278.0 Z" fill="rgb(0, 73, 255)" stroke="rgb(0, 0, 0)" stroke-width="6" transform="translate(0,556) rotate(450)" />
<path d="M-278.0,278.0 L-319.7,319.7 L-319.7,85.66335682022991 L-278.0,74.4898754958521 Z" fill="rgb(255, 0, 0)" stroke="rgb(0, 0, 0)" stroke-width="6" transform="translate(0,556) rotate(450)" />
</svg>